<svg version="1.1" id="Layer_1" xmlns="http://www.w3.org/2000/svg" xmlns:xlink="http://www.w3.org/1999/xlink" x="0px" y="0px"
	 width="100%" viewBox="0 0 448 448" enable-background="new 0 0 448 448" xml:space="preserve">
<path fill="#000000" opacity="1.000000" stroke="none" 
	d="
M174.719238,108.818802 
	C179.727478,118.348534 181.833374,128.538651 185.893173,138.040176 
	C191.757233,151.764450 196.649612,165.908035 201.918701,179.879807 
	C209.358795,199.608368 216.190796,219.566574 224.358307,239.021835 
	C224.422607,239.174988 224.468048,239.335953 224.525177,239.492203 
	C227.587723,247.868652 227.264786,248.327942 218.295288,248.330673 
	C213.632431,248.332092 208.959427,248.140305 204.310089,248.390503 
	C200.879684,248.575104 199.348145,247.146103 198.143738,244.028397 
	C194.370972,234.262390 190.512680,224.533615 187.675323,214.444321 
	C186.549820,210.442108 184.187958,209.175674 180.000626,209.240738 
	C164.017578,209.489044 148.027084,209.447098 132.042374,209.259186 
	C128.284576,209.215012 126.141197,210.456863 125.013367,213.984909 
	C121.777229,224.108154 118.555595,234.240280 114.397705,244.038712 
	C113.726830,245.619690 113.736244,247.778809 111.190430,247.976608 
	C108.896164,246.327805 110.342171,244.237762 110.885010,242.608734 
	C112.565880,237.564407 114.595375,232.636261 116.489143,227.662872 
	C121.690674,214.002701 126.513847,200.185318 131.244156,186.378296 
	C136.675995,170.523575 142.829834,154.918564 147.797562,138.896774 
	C150.594986,129.874603 155.120667,121.440224 157.072433,112.090561 
	C157.702759,109.071030 159.597290,107.121872 163.158325,107.618668 
	C166.897766,108.140358 170.793884,106.744576 174.719238,108.818802 
M140.661316,170.107193 
	C136.647446,181.663879 132.633575,193.220566 128.480896,205.176941 
	C147.179535,205.176941 165.239029,205.176941 183.701355,205.176941 
	C174.424713,179.131119 165.400360,153.793686 156.201416,127.966011 
	C149.689758,141.827835 145.937103,155.829819 140.661316,170.107193 
z"/>
<path fill="#000000" opacity="1.000000" stroke="none" 
	d="
M277.533569,234.518524 
	C279.448669,238.977356 281.149658,243.093857 281.821045,248.259079 
	C273.387024,248.259079 265.277527,248.273361 257.168121,248.249527 
	C255.010071,248.243179 254.519669,246.440170 253.984573,244.909256 
	C247.846359,227.347672 241.760971,209.767624 235.641464,192.199478 
	C233.207458,185.211746 229.875229,179.309540 220.992981,179.913712 
	C219.615265,180.007416 217.921860,179.956360 217.308975,178.107239 
	C220.632141,176.199722 277.508362,175.880096 282.247437,177.760956 
	C281.978180,180.168686 280.022217,179.817963 278.506836,179.916946 
	C275.684540,180.101288 272.845306,180.023438 270.022614,180.203659 
	C263.832764,180.598831 261.063568,184.157394 262.666382,190.259933 
	C263.928619,195.065872 265.856323,199.695221 267.444855,204.417664 
	C270.777313,214.324371 274.081085,224.240738 277.533569,234.518524 
z"/>
<path fill="#000000" opacity="1.000000" stroke="none" 
	d="
M283.099548,328.699646 
	C280.357727,316.337006 274.370239,305.443207 270.848053,292.743408 
	C279.561005,292.743408 287.462372,292.634460 295.357574,292.807587 
	C297.832184,292.861908 298.168640,295.378021 298.777557,297.206726 
	C300.483765,302.330811 302.063477,307.496979 303.888733,313.264740 
	C306.513885,305.841705 307.203156,298.337158 311.520050,292.261383 
	C313.712311,293.613556 313.568359,294.460663 313.314362,295.243927 
	C309.326538,307.542816 305.222321,319.805206 301.377869,332.148560 
	C300.348694,335.452972 298.604126,336.842285 295.251373,336.355713 
	C294.763031,336.284851 294.243073,336.272827 293.758942,336.356354 
	C287.857635,337.374481 284.200378,335.186707 283.099548,328.699646 
z"/>
<path fill="#000000" opacity="1.000000" stroke="none" 
	d="
M333.734985,231.641495 
	C331.712250,237.425720 329.833649,242.845490 327.955048,248.265274 
	C327.382080,248.106827 326.809082,247.948364 326.236084,247.789917 
	C325.491547,243.624847 327.425842,239.669205 328.456238,235.813507 
	C330.426056,228.442429 332.885773,221.173965 335.604492,214.039093 
	C338.459351,206.546875 340.272278,198.792236 342.206787,191.065048 
	C343.873291,184.408279 340.784607,180.432251 333.982178,180.181305 
	C329.492950,180.015701 324.996246,180.061722 320.503418,179.981628 
	C318.727417,179.949982 316.828613,180.208710 315.507904,178.483017 
	C318.301636,176.135666 365.645111,175.692947 369.468201,177.912354 
	C368.818787,180.380829 366.711884,179.887741 365.023132,179.988358 
	C352.469513,180.736328 349.414764,183.158890 345.382568,195.237823 
	C341.388947,207.201111 338.584106,219.542404 333.734985,231.641495 
z"/>
<path fill="#000000" opacity="1.000000" stroke="none" 
	d="
M198.553711,273.313354 
	C194.476440,273.326691 195.203049,270.559052 195.147781,268.392578 
	C195.106522,266.775146 195.706070,265.442200 197.655640,265.456543 
	C199.166992,265.467621 201.088303,265.627258 201.136398,267.389435 
	C201.193420,269.478790 202.916977,272.575165 198.553711,273.313354 
z"/>
<path fill="#000000" opacity="1.000000" stroke="none" 
	d="
M262.534058,270.214172 
	C262.738800,271.523987 263.912018,272.869141 261.520447,272.769684 
	C259.392303,272.681213 257.250366,271.231812 255.074066,273.145111 
	C254.036682,270.200806 255.175125,268.081421 256.188507,265.966522 
	C257.724823,265.764465 259.347809,269.103333 260.105560,265.453461 
	C262.378235,266.520355 262.213898,268.293060 262.534058,270.214172 
z"/>
<path fill="#000000" opacity="1.000000" stroke="none" 
	d="
M242.062225,267.800262 
	C243.857529,268.080536 242.992538,265.610321 245.082397,265.890411 
	C247.090775,267.635010 245.999252,270.039124 245.722305,272.535431 
	C243.756943,272.956085 241.774582,270.290375 240.325516,273.523376 
	C238.719879,270.426147 238.657288,268.185730 240.009018,265.995087 
	C241.476044,265.955688 241.297485,267.161743 242.062225,267.800262 
z"/>
<path fill="#000000" opacity="1.000000" stroke="none" 
	d="
M214.678436,266.810364 
	C215.661499,268.979584 214.810516,270.701202 214.637161,272.462128 
	C213.042892,273.105499 211.619812,272.881409 210.211441,272.464050 
	C209.085358,265.770050 209.578995,265.082855 214.678436,266.810364 
z"/>
<path fill="#000000" opacity="1.000000" stroke="none" 
	d="
M224.860062,269.027588 
	C225.442032,267.690033 225.921112,266.687958 226.522110,265.430878 
	C229.454422,267.142517 229.620270,269.981476 230.821533,272.723907 
	C228.542740,272.723907 226.673981,272.723907 224.832657,272.723907 
	C223.984818,271.563263 224.760773,270.458221 224.860062,269.027588 
z"/>
<path fill="#000000" opacity="1.000000" stroke="none" 
	d="
M273.394043,266.899719 
	C278.090851,265.977081 276.588135,270.334991 278.738586,272.139984 
	C276.063293,273.350555 273.905975,271.590485 271.892212,272.878418 
	C271.242828,270.282501 272.640808,268.842499 273.394043,266.899719 
z"/>
</svg>